Coordinates
nRows=11
nColumns=24

# SIMM Motion File Header:
name Coordinates
datacolumns 24
datarows 11
otherdata 1
range 0.88566999999999996000 0.89566999999999997000
endheader
time	pelvis_tx	pelvis_ty	pelvis_tz	pelvis_tilt	pelvis_list	pelvis_rotation	hip_flexion_r	hip_adduction_r	hip_rotation_r	knee_angle_r	ankle_angle_r	subtalar_angle_r	mtp_angle_r	hip_flexion_l	hip_adduction_l	hip_rotation_l	knee_angle_l	ankle_angle_l	subtalar_angle_l	mtp_angle_l	lumbar_extension	lumbar_bending	lumbar_rotation
      0.88566999999999996000	     -1.70823873935569680000	      0.94913657018117037000	      0.18803974721168848000	      5.25580167385391040000	     -1.19104991011479040000	      4.96977266094148630000	     14.86512540417267700000	      1.15598958992516530000	     -1.12847692708178320000	    -14.75901272571971900000	     -5.44336245058001200000	      0.00000000000002214199	     -0.00000000000020665500	    -13.53669476064978700000	     -3.41051713331667770000	      4.41696437455779020000	    -26.07580376954064100000	      7.35508905342880490000	     -0.00000000000006953721	      0.00000000000006233507	     -9.93020372305748290000	      2.95785820130333830000	      2.50052369850572110000
      0.88666999999999996000	     -1.70738572402649090000	      0.94927487618950046000	      0.18813074832425900000	      5.25365377221379240000	     -1.18976460366129340000	      4.95348341352199030000	     14.81819201355560400000	      1.16608472407103720000	     -1.10616450032331400000	    -14.76412221762139200000	     -5.40977833709896580000	      0.00000000000002237337	     -0.00000000000020771987	    -13.48019381305439900000	     -3.42843867194747530000	      4.35503559934959930000	    -26.22719655962450600000	      7.14706286026014490000	     -0.00000000000006992339	      0.00000000000006337303	     -9.92123817872614570000	      2.96916202210107460000	      2.49856274185468450000
      0.88766999999999996000	     -1.70653353132813180000	      0.94941397083617718000	      0.18822166240721086000	      5.25151162973370230000	     -1.18847319668527200000	      4.93735455251423790000	     14.77058129243687100000	      1.17621042248960770000	     -1.08315474706423890000	    -14.76801772922631200000	     -5.37532825453632410000	      0.00000000000002261395	     -0.00000000000020879115	    -13.42299508107092100000	     -3.44664229234256640000	      4.29266373182315150000	    -26.37875556506460100000	      6.93581698672607510000	     -0.00000000000007031257	      0.00000000000006438263	     -9.91233820434426780000	      2.98049643176819950000	      2.49609797367068300000
      0.88866999999999996000	     -1.70568216126061900000	      0.94955385412120052000	      0.18831248946054413000	      5.24937524641363940000	     -1.18717568918672560000	      4.92138607791823100000	     14.72229324081647800000	      1.18636668518087670000	     -1.05944766730455590000	    -14.77069926053447300000	     -5.34001220289208420000	      0.00000000000002286373	     -0.00000000000020986883	    -13.36509856469935400000	     -3.46512799450195130000	      4.22984877197844520000	    -26.53048078586092000000	      6.72135143282658820000	     -0.00000000000007070473	      0.00000000000006536387	     -9.90350379991184760000	      2.99186143030471200000	      2.49312939395371560000
      0.88966999999999996000	     -1.70483079119310600000	      0.94969373740622387000	      0.18840331651387737000	      5.24723886309357650000	     -1.18587818168817920000	      4.90541760332222320000	     14.67400518919608400000	      1.19652294787214600000	     -1.03574058754487290000	    -14.77338079184263200000	     -5.30469615124784430000	      0.00000000000002311351	     -0.00000000000021094650	    -13.30720204832778500000	     -3.48361369666133620000	      4.16703381213373980000	    -26.68220600665724300000	      6.50688587892710140000	     -0.00000000000007109690	      0.00000000000006634510	     -9.89466939547942740000	      3.00322642884122450000	      2.49016081423674770000
      0.89066999999999996000	     -1.70398140524641200000	      0.94983529815006129000	      0.18849388897390779000	      5.24525385044076040000	     -1.18458042822015710000	      4.88985845249713420000	     14.62415219237670300000	      1.20677422917567560000	     -1.01094309766119840000	    -14.77353165527573600000	     -5.26774587412624040000	      0.00000000000002335762	     -0.00000000000021206781	    -13.24792206512253000000	     -3.50274082314240200000	      4.10337913705216020000	    -26.83425227569021100000	      6.28515664895881620000	     -0.00000000000007148739	      0.00000000000006726923	     -9.88614985603784650000	      3.01467578425643360000	      2.48613140286999410000
      0.89166999999999996000	     -1.70313201929971810000	      0.94997685889389871000	      0.18858446143393823000	      5.24326883778794440000	     -1.18328267475213520000	      4.87429930167204620000	     14.57429919555732300000	      1.21702551047920520000	     -0.98614560777752358000	    -14.77368251870884000000	     -5.23079559700463470000	      0.00000000000002360173	     -0.00000000000021318912	    -13.18864208191727600000	     -3.52186794962346770000	      4.03972446197058050000	    -26.98629854472318000000	      6.06342741899052840000	     -0.00000000000007187788	      0.00000000000006819336	     -9.87763031659626730000	      3.02612513967164260000	      2.48210199150324010000
      0.89266999999999996000	     -1.70228369526204260000	      0.95011926414874703000	      0.18867487143975745000	      5.24147402090501660000	     -1.18199102077915350000	      4.85898129763452410000	     14.52357440821623900000	      1.22734016931287760000	     -0.96107636758021608000	    -14.77263024511889400000	     -5.19316268206496900000	      0.00000000000002385967	     -0.00000000000021433198	    -13.12881241433748900000	     -3.54132582332452640000	      3.97574097572310280000	    -27.13846254648596800000	      5.83811842542430260000	     -0.00000000000007225573	      0.00000000000006908007	     -9.86940245181685150000	      3.03762633326603520000	      2.47756748870648560000
      0.89366999999999996000	     -1.70143643313338530000	      0.95026251391460625000	      0.18876511899136550000	      5.23986939979197520000	     -1.18070546630121220000	      4.84390444038456900000	     14.47197783035345400000	      1.23771820567669270000	     -0.93573537706927568000	    -14.77037483450589900000	     -5.15484712930724150000	      0.00000000000002413143	     -0.00000000000021549639	    -13.06843306238316800000	     -3.56111444424557890000	      3.91142867830972700000	    -27.29074428097857200000	      5.60922966826013880000	     -0.00000000000007262092	      0.00000000000006992935	     -9.86146626169960070000	      3.04917936503961150000	      2.47252789447973150000
      0.89466999999999997000	     -1.70058917100472830000	      0.95040576368046548000	      0.18885536654297355000	      5.23826477867893380000	     -1.17941991182327090000	      4.82882758313461300000	     14.42038125249066700000	      1.24809624204050770000	     -0.91039438655833538000	    -14.76811942389290300000	     -5.11653157654951320000	      0.00000000000002440320	     -0.00000000000021666080	    -13.00805371042884500000	     -3.58090306516663090000	      3.84711638089635110000	    -27.44302601547118000000	      5.38034091109597320000	     -0.00000000000007298612	      0.00000000000007077863	     -9.85353007158234990000	      3.06073239681318830000	      2.46748830025297710000
      0.89566999999999997000	     -1.69974396466163860000	      0.95055061651379946000	      0.18894522424479956000	      5.23723876390350900000	     -1.17817986154089230000	      4.81430382727369910000	     14.36696249185832200000	      1.25864168207642880000	     -0.88503610165550239000	    -14.76369703102887600000	     -5.07706795264318880000	      0.00000000000002466646	     -0.00000000000021782298	    -12.94694819386619100000	     -3.60136169500402840000	      3.78239135806464470000	    -27.59539380468096000000	      5.14482714797502720000	     -0.00000000000007330655	      0.00000000000007160955	     -9.84638964117818820000	      3.07242769787170510000	      2.46151562138141290000
